<mxfile host="app.diagrams.net" modified="2020-12-29T02:17:28.289Z" agent="5.0 (Macintosh; Intel Mac OS X 10_14_6) AppleWebKit/537.36 (KHTML, like Gecko) Chrome/87.0.4280.88 Safari/537.36" etag="IjqJEIAL6HkHFMRpfKTa" version="14.1.3" type="github">
  <diagram id="TP_KgOGqctB8blgeoTTj" name="Page-1">
    <mxGraphModel dx="1151" dy="741" grid="1" gridSize="10" guides="1" tooltips="1" connect="1" arrows="1" fold="1" page="1" pageScale="1" pageWidth="827" pageHeight="1169" math="0" shadow="0">
      <root>
        <mxCell id="0" />
        <mxCell id="1" parent="0" />
        <mxCell id="mCSkL7zsn4XKAd-oPTaS-9" value="" style="verticalLabelPosition=bottom;verticalAlign=top;html=1;shadow=0;dashed=0;strokeWidth=1;shape=mxgraph.android.phone2;strokeColor=#c0c0c0;" vertex="1" parent="1">
          <mxGeometry x="300" y="200" width="190" height="360" as="geometry" />
        </mxCell>
        <mxCell id="mCSkL7zsn4XKAd-oPTaS-10" value="" style="endArrow=none;html=1;exitX=0.052;exitY=0.971;exitDx=0;exitDy=0;exitPerimeter=0;" edge="1" parent="1" source="mCSkL7zsn4XKAd-oPTaS-9">
          <mxGeometry width="50" height="50" relative="1" as="geometry">
            <mxPoint x="210" y="530" as="sourcePoint" />
            <mxPoint x="180" y="460" as="targetPoint" />
          </mxGeometry>
        </mxCell>
        <mxCell id="mCSkL7zsn4XKAd-oPTaS-13" value="" style="endArrow=none;html=1;entryX=0;entryY=0.668;entryDx=0;entryDy=0;entryPerimeter=0;" edge="1" parent="1" target="mCSkL7zsn4XKAd-oPTaS-9">
          <mxGeometry width="50" height="50" relative="1" as="geometry">
            <mxPoint x="240" y="500" as="sourcePoint" />
            <mxPoint x="280" y="430" as="targetPoint" />
            <Array as="points">
              <mxPoint x="240" y="470" />
              <mxPoint x="250" y="450" />
              <mxPoint x="270" y="437" />
            </Array>
          </mxGeometry>
        </mxCell>
        <mxCell id="mCSkL7zsn4XKAd-oPTaS-14" value="20-90Ëš" style="text;html=1;strokeColor=none;fillColor=none;align=center;verticalAlign=middle;whiteSpace=wrap;rounded=0;" vertex="1" parent="1">
          <mxGeometry x="210" y="420" width="40" height="20" as="geometry" />
        </mxCell>
        <mxCell id="mCSkL7zsn4XKAd-oPTaS-16" value="" style="endArrow=classic;html=1;" edge="1" parent="1">
          <mxGeometry width="50" height="50" relative="1" as="geometry">
            <mxPoint x="295" y="320" as="sourcePoint" />
            <mxPoint x="220" y="280" as="targetPoint" />
          </mxGeometry>
        </mxCell>
        <mxCell id="mCSkL7zsn4XKAd-oPTaS-18" value="&amp;gt;5km/h" style="text;html=1;strokeColor=none;fillColor=none;align=center;verticalAlign=middle;whiteSpace=wrap;rounded=0;" vertex="1" parent="1">
          <mxGeometry x="240" y="270" width="40" height="20" as="geometry" />
        </mxCell>
        <mxCell id="mCSkL7zsn4XKAd-oPTaS-20" value="" style="verticalLabelPosition=bottom;verticalAlign=top;html=1;shadow=0;dashed=0;strokeWidth=1;shape=mxgraph.android.keyboard;" vertex="1" parent="1">
          <mxGeometry x="307.5" y="440" width="175" height="90" as="geometry" />
        </mxCell>
      </root>
    </mxGraphModel>
  </diagram>
</mxfile>
